<svg xmlns="http://www.w3.org/2000/svg" viewBox="0 0 96 96">
	<rect x="4" y="4" width="88" height="88" rx="20" fill="#f7f5f0"/>
	<g fill="none" stroke="#1f1c17" stroke-width="6" stroke-linecap="round" stroke-linejoin="round">
		<path d="M28 16h40M28 80h40"/>
		<path d="M33 18v8c0 12 12 15 12 22s-12 10-12 22v8"/>
		<path d="M63 18v8c0 12-12 15-12 22s12 10 12 22v8"/>
		<path d="M40 73c2-3 4.5-4.5 8-4.5s6 1.5 8 4.5" stroke-width="4.5" opacity="0.65"/>
	</g>
	<circle cx="48" cy="33" r="5" fill="#b3541e"/>
	<circle cx="48" cy="48" r="3.5" fill="#3d5a80"/>
	<circle cx="48" cy="61" r="4" fill="#1f7a5c"/>
</svg>
